<mxfile host="app.diagrams.net" modified="2023-07-04T02:52:49.002Z" agent="Mozilla/5.0 (Macintosh; Intel Mac OS X 10_15_7) AppleWebKit/537.36 (KHTML, like Gecko) Chrome/113.0.0.0 Safari/537.36" etag="kefUGSwgGSWhfrOwKF2x" version="21.5.2" type="github">
  <diagram name="第 1 页" id="cWxozfHeqnZfc2aYhIhj">
    <mxGraphModel dx="1193" dy="830" grid="1" gridSize="10" guides="1" tooltips="1" connect="1" arrows="1" fold="1" page="1" pageScale="1" pageWidth="827" pageHeight="1169" math="0" shadow="0">
      <root>
        <mxCell id="0" />
        <mxCell id="1" parent="0" />
        <mxCell id="0Cgant7cP4nd_XQbw7A4-1" value="Fastdata测试环境" style="rounded=1;whiteSpace=wrap;html=1;" vertex="1" parent="1">
          <mxGeometry x="414" y="140" width="180" height="50" as="geometry" />
        </mxCell>
        <mxCell id="0Cgant7cP4nd_XQbw7A4-2" value="中间件" style="rounded=0;whiteSpace=wrap;html=1;" vertex="1" parent="1">
          <mxGeometry x="440" y="210" width="120" height="60" as="geometry" />
        </mxCell>
        <mxCell id="0Cgant7cP4nd_XQbw7A4-3" value="控制台" style="rounded=0;whiteSpace=wrap;html=1;" vertex="1" parent="1">
          <mxGeometry x="440" y="280" width="120" height="60" as="geometry" />
        </mxCell>
        <mxCell id="0Cgant7cP4nd_XQbw7A4-4" value="Datasense" style="rounded=0;whiteSpace=wrap;html=1;" vertex="1" parent="1">
          <mxGeometry x="440" y="350" width="120" height="60" as="geometry" />
        </mxCell>
        <mxCell id="0Cgant7cP4nd_XQbw7A4-10" style="edgeStyle=orthogonalEdgeStyle;rounded=0;orthogonalLoop=1;jettySize=auto;html=1;exitX=1;exitY=0.5;exitDx=0;exitDy=0;entryX=0;entryY=0.5;entryDx=0;entryDy=0;" edge="1" parent="1" source="0Cgant7cP4nd_XQbw7A4-5" target="0Cgant7cP4nd_XQbw7A4-8">
          <mxGeometry relative="1" as="geometry" />
        </mxCell>
        <mxCell id="0Cgant7cP4nd_XQbw7A4-5" value="Fastdata-deploy" style="rounded=1;whiteSpace=wrap;html=1;" vertex="1" parent="1">
          <mxGeometry x="70" y="220" width="120" height="60" as="geometry" />
        </mxCell>
        <mxCell id="0Cgant7cP4nd_XQbw7A4-6" value="gitlab" style="rounded=1;whiteSpace=wrap;html=1;" vertex="1" parent="1">
          <mxGeometry x="50" y="140" width="180" height="50" as="geometry" />
        </mxCell>
        <mxCell id="0Cgant7cP4nd_XQbw7A4-11" style="edgeStyle=orthogonalEdgeStyle;rounded=0;orthogonalLoop=1;jettySize=auto;html=1;exitX=1;exitY=0.5;exitDx=0;exitDy=0;entryX=0;entryY=0.5;entryDx=0;entryDy=0;" edge="1" parent="1" source="0Cgant7cP4nd_XQbw7A4-8" target="0Cgant7cP4nd_XQbw7A4-2">
          <mxGeometry relative="1" as="geometry" />
        </mxCell>
        <mxCell id="0Cgant7cP4nd_XQbw7A4-13" style="edgeStyle=orthogonalEdgeStyle;rounded=0;orthogonalLoop=1;jettySize=auto;html=1;exitX=1;exitY=0.5;exitDx=0;exitDy=0;" edge="1" parent="1" source="0Cgant7cP4nd_XQbw7A4-8" target="0Cgant7cP4nd_XQbw7A4-3">
          <mxGeometry relative="1" as="geometry" />
        </mxCell>
        <mxCell id="0Cgant7cP4nd_XQbw7A4-8" value="argocd" style="rounded=1;whiteSpace=wrap;html=1;" vertex="1" parent="1">
          <mxGeometry x="270" y="260" width="90" height="50" as="geometry" />
        </mxCell>
        <mxCell id="0Cgant7cP4nd_XQbw7A4-12" style="edgeStyle=orthogonalEdgeStyle;rounded=0;orthogonalLoop=1;jettySize=auto;html=1;exitX=1;exitY=0.5;exitDx=0;exitDy=0;" edge="1" parent="1" source="0Cgant7cP4nd_XQbw7A4-9" target="0Cgant7cP4nd_XQbw7A4-8">
          <mxGeometry relative="1" as="geometry" />
        </mxCell>
        <mxCell id="0Cgant7cP4nd_XQbw7A4-9" value="console" style="rounded=1;whiteSpace=wrap;html=1;" vertex="1" parent="1">
          <mxGeometry x="70" y="290" width="120" height="60" as="geometry" />
        </mxCell>
        <mxCell id="0Cgant7cP4nd_XQbw7A4-15" style="edgeStyle=orthogonalEdgeStyle;rounded=0;orthogonalLoop=1;jettySize=auto;html=1;" edge="1" parent="1" source="0Cgant7cP4nd_XQbw7A4-14" target="0Cgant7cP4nd_XQbw7A4-8">
          <mxGeometry relative="1" as="geometry">
            <mxPoint x="315" y="140" as="targetPoint" />
          </mxGeometry>
        </mxCell>
        <mxCell id="0Cgant7cP4nd_XQbw7A4-14" value="测试同学" style="rounded=1;whiteSpace=wrap;html=1;" vertex="1" parent="1">
          <mxGeometry x="255" y="50" width="120" height="60" as="geometry" />
        </mxCell>
        <mxCell id="0Cgant7cP4nd_XQbw7A4-18" style="edgeStyle=orthogonalEdgeStyle;rounded=0;orthogonalLoop=1;jettySize=auto;html=1;exitX=1;exitY=0.5;exitDx=0;exitDy=0;entryX=0;entryY=0.5;entryDx=0;entryDy=0;" edge="1" parent="1" source="0Cgant7cP4nd_XQbw7A4-16" target="0Cgant7cP4nd_XQbw7A4-8">
          <mxGeometry relative="1" as="geometry" />
        </mxCell>
        <mxCell id="0Cgant7cP4nd_XQbw7A4-16" value="datasene" style="rounded=1;whiteSpace=wrap;html=1;" vertex="1" parent="1">
          <mxGeometry x="70" y="370" width="120" height="60" as="geometry" />
        </mxCell>
        <mxCell id="0Cgant7cP4nd_XQbw7A4-19" style="edgeStyle=orthogonalEdgeStyle;rounded=0;orthogonalLoop=1;jettySize=auto;html=1;exitX=1;exitY=0.5;exitDx=0;exitDy=0;entryX=0;entryY=0.5;entryDx=0;entryDy=0;" edge="1" parent="1" source="0Cgant7cP4nd_XQbw7A4-17" target="0Cgant7cP4nd_XQbw7A4-8">
          <mxGeometry relative="1" as="geometry" />
        </mxCell>
        <mxCell id="0Cgant7cP4nd_XQbw7A4-17" value="dlink" style="rounded=1;whiteSpace=wrap;html=1;" vertex="1" parent="1">
          <mxGeometry x="70" y="440" width="120" height="60" as="geometry" />
        </mxCell>
        <mxCell id="0Cgant7cP4nd_XQbw7A4-20" value="1、一个工程一个项目&lt;br&gt;2、不同环境不同分支，环境可以带版本（test-v1.2.4）" style="text;html=1;strokeColor=none;fillColor=none;align=center;verticalAlign=middle;whiteSpace=wrap;rounded=0;" vertex="1" parent="1">
          <mxGeometry x="340" y="490" width="450" height="60" as="geometry" />
        </mxCell>
        <mxCell id="0Cgant7cP4nd_XQbw7A4-23" style="edgeStyle=orthogonalEdgeStyle;rounded=0;orthogonalLoop=1;jettySize=auto;html=1;exitX=1;exitY=0.5;exitDx=0;exitDy=0;entryX=0;entryY=0.5;entryDx=0;entryDy=0;" edge="1" parent="1" source="0Cgant7cP4nd_XQbw7A4-21" target="0Cgant7cP4nd_XQbw7A4-8">
          <mxGeometry relative="1" as="geometry" />
        </mxCell>
        <mxCell id="0Cgant7cP4nd_XQbw7A4-21" value="datakuber" style="rounded=1;whiteSpace=wrap;html=1;" vertex="1" parent="1">
          <mxGeometry x="70" y="510" width="120" height="60" as="geometry" />
        </mxCell>
        <mxCell id="0Cgant7cP4nd_XQbw7A4-25" style="edgeStyle=orthogonalEdgeStyle;rounded=0;orthogonalLoop=1;jettySize=auto;html=1;exitX=1;exitY=0.5;exitDx=0;exitDy=0;entryX=0;entryY=0.5;entryDx=0;entryDy=0;" edge="1" parent="1" source="0Cgant7cP4nd_XQbw7A4-24" target="0Cgant7cP4nd_XQbw7A4-8">
          <mxGeometry relative="1" as="geometry">
            <mxPoint x="230" y="320" as="targetPoint" />
          </mxGeometry>
        </mxCell>
        <mxCell id="0Cgant7cP4nd_XQbw7A4-24" value="datafacts" style="rounded=1;whiteSpace=wrap;html=1;" vertex="1" parent="1">
          <mxGeometry x="70" y="584.5" width="120" height="60" as="geometry" />
        </mxCell>
      </root>
    </mxGraphModel>
  </diagram>
</mxfile>
